<svg width="62" height="10" viewBox="0 0 62 10" fill="none" xmlns="http://www.w3.org/2000/svg">
<path d="M0.816 9V0.599999H3.684C4.668 0.599999 5.476 0.776 6.108 1.128C6.748 1.472 7.22 1.96 7.524 2.592C7.836 3.216 7.992 3.952 7.992 4.8C7.992 5.648 7.836 6.388 7.524 7.02C7.22 7.644 6.748 8.132 6.108 8.484C5.476 8.828 4.668 9 3.684 9H0.816ZM2.352 7.68H3.612C4.316 7.68 4.872 7.568 5.28 7.344C5.688 7.112 5.98 6.784 6.156 6.36C6.332 5.928 6.42 5.408 6.42 4.8C6.42 4.2 6.332 3.684 6.156 3.252C5.98 2.82 5.688 2.488 5.28 2.256C4.872 2.024 4.316 1.908 3.612 1.908H2.352V7.68ZM12.9233 9.144C12.0833 9.144 11.3473 8.96 10.7153 8.592C10.0913 8.224 9.59925 7.716 9.23925 7.068C8.88725 6.412 8.71125 5.656 8.71125 4.8C8.71125 3.944 8.88725 3.192 9.23925 2.544C9.59925 1.888 10.0913 1.376 10.7153 1.008C11.3473 0.64 12.0833 0.456 12.9233 0.456C13.7553 0.456 14.4873 0.64 15.1193 1.008C15.7513 1.376 16.2433 1.888 16.5953 2.544C16.9473 3.192 17.1233 3.944 17.1233 4.8C17.1233 5.656 16.9473 6.412 16.5953 7.068C16.2433 7.716 15.7513 8.224 15.1193 8.592C14.4873 8.96 13.7553 9.144 12.9233 9.144ZM12.9233 7.764C13.7233 7.764 14.3593 7.5 14.8313 6.972C15.3113 6.444 15.5513 5.72 15.5513 4.8C15.5513 3.88 15.3113 3.156 14.8313 2.628C14.3593 2.1 13.7233 1.836 12.9233 1.836C12.1233 1.836 11.4833 2.1 11.0033 2.628C10.5233 3.156 10.2833 3.88 10.2833 4.8C10.2833 5.72 10.5233 6.444 11.0033 6.972C11.4833 7.5 12.1233 7.764 12.9233 7.764ZM21.7914 9.144C20.9994 9.144 20.3074 8.964 19.7154 8.604C19.1234 8.244 18.6634 7.744 18.3354 7.104C18.0074 6.456 17.8434 5.704 17.8434 4.848C17.8434 3.984 18.0114 3.224 18.3474 2.568C18.6914 1.904 19.1754 1.388 19.7994 1.02C20.4314 0.644 21.1794 0.456 22.0434 0.456C23.0274 0.456 23.8434 0.692 24.4914 1.164C25.1394 1.636 25.5594 2.288 25.7514 3.12H24.0354C23.9074 2.728 23.6754 2.424 23.3394 2.208C23.0034 1.984 22.5714 1.872 22.0434 1.872C21.2034 1.872 20.5554 2.14 20.0994 2.676C19.6434 3.204 19.4154 3.932 19.4154 4.86C19.4154 5.788 19.6394 6.508 20.0874 7.02C20.5434 7.524 21.1594 7.776 21.9354 7.776C22.6954 7.776 23.2674 7.572 23.6514 7.164C24.0434 6.748 24.2794 6.204 24.3594 5.532H22.2354V4.38H25.9074V9H24.4914L24.3714 7.896C24.0994 8.296 23.7594 8.604 23.3514 8.82C22.9434 9.036 22.4234 9.144 21.7914 9.144ZM29.5401 9V0.599999H31.0761V7.8H34.7961V9H29.5401ZM38.9637 9.144C38.1237 9.144 37.3877 8.96 36.7557 8.592C36.1317 8.224 35.6397 7.716 35.2797 7.068C34.9277 6.412 34.7517 5.656 34.7517 4.8C34.7517 3.944 34.9277 3.192 35.2797 2.544C35.6397 1.888 36.1317 1.376 36.7557 1.008C37.3877 0.64 38.1237 0.456 38.9637 0.456C39.7957 0.456 40.5277 0.64 41.1597 1.008C41.7917 1.376 42.2837 1.888 42.6357 2.544C42.9877 3.192 43.1637 3.944 43.1637 4.8C43.1637 5.656 42.9877 6.412 42.6357 7.068C42.2837 7.716 41.7917 8.224 41.1597 8.592C40.5277 8.96 39.7957 9.144 38.9637 9.144ZM38.9637 7.764C39.7637 7.764 40.3997 7.5 40.8717 6.972C41.3517 6.444 41.5917 5.72 41.5917 4.8C41.5917 3.88 41.3517 3.156 40.8717 2.628C40.3997 2.1 39.7637 1.836 38.9637 1.836C38.1637 1.836 37.5237 2.1 37.0437 2.628C36.5637 3.156 36.3237 3.88 36.3237 4.8C36.3237 5.72 36.5637 6.444 37.0437 6.972C37.5237 7.5 38.1637 7.764 38.9637 7.764ZM47.8319 9.144C47.0399 9.144 46.3479 8.964 45.7559 8.604C45.1639 8.244 44.7039 7.744 44.3759 7.104C44.0479 6.456 43.8839 5.704 43.8839 4.848C43.8839 3.984 44.0519 3.224 44.3879 2.568C44.7319 1.904 45.2159 1.388 45.8399 1.02C46.4719 0.644 47.2199 0.456 48.0839 0.456C49.0679 0.456 49.8839 0.692 50.5319 1.164C51.1799 1.636 51.5999 2.288 51.7919 3.12H50.0759C49.9479 2.728 49.7159 2.424 49.3799 2.208C49.0439 1.984 48.6119 1.872 48.0839 1.872C47.2439 1.872 46.5959 2.14 46.1399 2.676C45.6839 3.204 45.4559 3.932 45.4559 4.86C45.4559 5.788 45.6799 6.508 46.1279 7.02C46.5839 7.524 47.1999 7.776 47.9759 7.776C48.7359 7.776 49.3079 7.572 49.6919 7.164C50.0839 6.748 50.3199 6.204 50.3999 5.532H48.2759V4.38H51.9479V9H50.5319L50.4119 7.896C50.1399 8.296 49.7999 8.604 49.3919 8.82C48.9839 9.036 48.4639 9.144 47.8319 9.144ZM57.0172 9.144C56.1772 9.144 55.4412 8.96 54.8092 8.592C54.1852 8.224 53.6932 7.716 53.3332 7.068C52.9812 6.412 52.8052 5.656 52.8052 4.8C52.8052 3.944 52.9812 3.192 53.3332 2.544C53.6932 1.888 54.1852 1.376 54.8092 1.008C55.4412 0.64 56.1772 0.456 57.0172 0.456C57.8492 0.456 58.5812 0.64 59.2132 1.008C59.8452 1.376 60.3372 1.888 60.6892 2.544C61.0412 3.192 61.2172 3.944 61.2172 4.8C61.2172 5.656 61.0412 6.412 60.6892 7.068C60.3372 7.716 59.8452 8.224 59.2132 8.592C58.5812 8.96 57.8492 9.144 57.0172 9.144ZM57.0172 7.764C57.8172 7.764 58.4532 7.5 58.9252 6.972C59.4052 6.444 59.6452 5.72 59.6452 4.8C59.6452 3.88 59.4052 3.156 58.9252 2.628C58.4532 2.1 57.8172 1.836 57.0172 1.836C56.2172 1.836 55.5772 2.1 55.0972 2.628C54.6172 3.156 54.3772 3.88 54.3772 4.8C54.3772 5.72 54.6172 6.444 55.0972 6.972C55.5772 7.5 56.2172 7.764 57.0172 7.764Z" fill="#25222D"/>
</svg>
