<svg width="89" height="13" viewBox="0 0 89 13" fill="none" xmlns="http://www.w3.org/2000/svg">
<path fill-rule="evenodd" clip-rule="evenodd" d="M21.6323 10.5439C20.5016 11.6639 19.1256 12.2239 17.5043 12.2239C15.883 12.2239 14.507 11.6639 13.3763 10.5439C12.2456 9.42393 11.6803 8.04259 11.6803 6.39993C11.6803 4.75726 12.2456 3.37593 13.3763 2.25593C14.507 1.13593 15.883 0.575928 17.5043 0.575928C19.1256 0.575928 20.5016 1.13593 21.6323 2.25593C22.763 3.37593 23.3283 4.75726 23.3283 6.39993C23.3283 8.04259 22.763 9.42393 21.6323 10.5439ZM15.1683 8.79993C15.7976 9.4186 16.5763 9.72793 17.5043 9.72793C18.4323 9.72793 19.2056 9.4186 19.8243 8.79993C20.4536 8.18126 20.7683 7.38126 20.7683 6.39993C20.7683 5.41859 20.4536 4.61859 19.8243 3.99993C19.2056 3.38126 18.4323 3.07193 17.5043 3.07193C16.5763 3.07193 15.7976 3.38126 15.1683 3.99993C14.5496 4.61859 14.2403 5.41859 14.2403 6.39993C14.2403 7.38126 14.5496 8.18126 15.1683 8.79993ZM5.44094 0.799928C6.9876 0.799928 8.27827 1.33859 9.31294 2.41593C10.3583 3.48259 10.8809 4.8106 10.8809 6.39993C10.8809 7.98926 10.3583 9.32259 9.31294 10.3999C8.27827 11.4666 6.9876 11.9999 5.44094 11.9999H0.960938V0.799928H5.44094ZM5.44094 9.53593C6.32627 9.53593 7.04094 9.25326 7.58494 8.68793C8.1396 8.11193 8.41694 7.34926 8.41694 6.39993C8.41694 5.45059 8.1396 4.69326 7.58494 4.12793C7.04094 3.55193 6.32627 3.26393 5.44094 3.26393H3.52094V9.53593H5.44094ZM35.6977 6.71993V5.75993H30.0817V7.99993H33.0737C32.647 9.15193 31.6924 9.72793 30.2097 9.72793C29.143 9.72793 28.2897 9.42393 27.6497 8.81593C27.0097 8.19726 26.6897 7.40259 26.6897 6.43193C26.6897 5.45059 26.999 4.64526 27.6177 4.01593C28.247 3.38659 29.0364 3.07193 29.9857 3.07193C30.5937 3.07193 31.1377 3.19459 31.6177 3.43993C32.1084 3.68526 32.4764 3.99993 32.7217 4.38393L34.8977 3.13593C34.4177 2.36793 33.7404 1.74926 32.8657 1.27993C32.0017 0.810595 31.047 0.575928 30.0017 0.575928C28.359 0.575928 26.967 1.14126 25.8257 2.27193C24.695 3.40259 24.1297 4.78393 24.1297 6.41593C24.1297 8.04793 24.7004 9.42393 25.8417 10.5439C26.9937 11.6639 28.439 12.2239 30.1777 12.2239C31.7777 12.2239 33.095 11.7279 34.1297 10.7359C35.175 9.73326 35.6977 8.39459 35.6977 6.71993ZM43.3809 9.53593H47.3809V11.9999H40.8209V0.799928H43.3809V9.53593ZM53.0518 12.2239C54.6731 12.2239 56.0491 11.6639 57.1798 10.5439C58.3105 9.42393 58.8758 8.04259 58.8758 6.39993C58.8758 4.75726 58.3105 3.37593 57.1798 2.25593C56.0491 1.13593 54.6731 0.575928 53.0518 0.575928C51.4305 0.575928 50.0545 1.13593 48.9238 2.25593C47.7931 3.37593 47.2278 4.75726 47.2278 6.39993C47.2278 8.04259 47.7931 9.42393 48.9238 10.5439C50.0545 11.6639 51.4305 12.2239 53.0518 12.2239ZM53.0518 9.72793C52.1238 9.72793 51.3451 9.4186 50.7158 8.79993C50.0971 8.18126 49.7878 7.38126 49.7878 6.39993C49.7878 5.41859 50.0971 4.61859 50.7158 3.99993C51.3451 3.38126 52.1238 3.07193 53.0518 3.07193C53.9798 3.07193 54.7531 3.38126 55.3718 3.99993C56.0011 4.61859 56.3158 5.41859 56.3158 6.39993C56.3158 7.38126 56.0011 8.18126 55.3718 8.79993C54.7531 9.4186 53.9798 9.72793 53.0518 9.72793ZM71.2452 5.75993V6.71993C71.2452 8.39459 70.7225 9.73326 69.6772 10.7359C68.6425 11.7279 67.3252 12.2239 65.7252 12.2239C63.9865 12.2239 62.5412 11.6639 61.3892 10.5439C60.2479 9.42393 59.6772 8.04793 59.6772 6.41593C59.6772 4.78393 60.2425 3.40259 61.3732 2.27193C62.5145 1.14126 63.9065 0.575928 65.5492 0.575928C66.5945 0.575928 67.5492 0.810595 68.4132 1.27993C69.2879 1.74926 69.9652 2.36793 70.4452 3.13593L68.2692 4.38393C68.0239 3.99993 67.6559 3.68526 67.1652 3.43993C66.6852 3.19459 66.1412 3.07193 65.5332 3.07193C64.5839 3.07193 63.7945 3.38659 63.1652 4.01593C62.5465 4.64526 62.2372 5.45059 62.2372 6.43193C62.2372 7.40259 62.5572 8.19726 63.1972 8.81593C63.8372 9.42393 64.6905 9.72793 65.7572 9.72793C67.2399 9.72793 68.1945 9.15193 68.6212 7.99993H65.6292V5.75993H71.2452ZM77.8724 12.2239C79.4938 12.2239 80.8698 11.6639 82.0004 10.5439C83.1311 9.42393 83.6964 8.04259 83.6964 6.39993C83.6964 4.75726 83.1311 3.37593 82.0004 2.25593C80.8698 1.13593 79.4938 0.575928 77.8724 0.575928C76.2511 0.575928 74.8751 1.13593 73.7444 2.25593C72.6138 3.37593 72.0484 4.75726 72.0484 6.39993C72.0484 8.04259 72.6138 9.42393 73.7444 10.5439C74.8751 11.6639 76.2511 12.2239 77.8724 12.2239ZM77.8724 9.72793C76.9444 9.72793 76.1658 9.4186 75.5364 8.79993C74.9178 8.18126 74.6084 7.38126 74.6084 6.39993C74.6084 5.41859 74.9178 4.61859 75.5364 3.99993C76.1658 3.38126 76.9444 3.07193 77.8724 3.07193C78.8004 3.07193 79.5738 3.38126 80.1924 3.99993C80.8218 4.61859 81.1364 5.41859 81.1364 6.39993C81.1364 7.38126 80.8218 8.18126 80.1924 8.79993C79.5738 9.4186 78.8004 9.72793 77.8724 9.72793ZM87 8C86.4475 8 85.9761 8.19575 85.5856 8.58726C85.1952 8.97507 85 9.44598 85 10C85 10.554 85.1952 11.0268 85.5856 11.4183C85.9761 11.8061 86.4475 12 87 12C87.5525 12 88.0239 11.8061 88.4144 11.4183C88.8048 11.0268 89 10.554 89 10C89 9.44598 88.8048 8.97507 88.4144 8.58726C88.0239 8.19575 87.5525 8 87 8ZM87 11.867C86.488 11.867 86.0497 11.6861 85.6851 11.3241C85.3241 10.9584 85.1436 10.5171 85.1436 10C85.1436 9.48292 85.3241 9.0434 85.6851 8.68144C86.0497 8.31579 86.488 8.13296 87 8.13296C87.512 8.13296 87.9484 8.31579 88.3094 8.68144C88.6703 9.0434 88.8508 9.48292 88.8508 10C88.8508 10.5171 88.6703 10.9584 88.3094 11.3241C87.9484 11.6861 87.512 11.867 87 11.867ZM87.3591 10.205C87.6354 10.1163 87.7735 9.92059 87.7735 9.61773C87.7735 9.44044 87.709 9.28901 87.5801 9.16343C87.4512 9.03786 87.2652 8.97507 87.0221 8.97507H86.4088V11.0249H86.674V10.2548H87.0221H87.0994L87.5304 11.0249H87.8232L87.3591 10.205ZM87.0331 10H86.674V9.22992H87.0331C87.1878 9.22992 87.3057 9.265 87.3867 9.33518C87.4678 9.40536 87.5083 9.49954 87.5083 9.61773C87.5083 9.87258 87.3499 10 87.0331 10Z" fill="#34312e"/>
</svg>
