<svg width="268" height="64" viewBox="0 0 268 64" fill="none" xmlns="http://www.w3.org/2000/svg">
<rect width="64" height="64" rx="16" fill="#C0F542"/>
<path d="M20.3327 31.9042C19.7447 31.3162 17.8582 31.4877 16.9885 31.647L12.4315 32.235L13.975 31.3897L17.3192 29.9197L20.3327 26.9063C21.0187 26.1345 23.0375 23.6576 25.6246 19.9238C28.2118 16.1901 35.4 16.6041 38.6707 17.2779C39.32 17.9516 40.2657 19.8356 38.8545 21.9818C37.0905 24.6645 31.0268 24.885 29.5201 26.2815C28.0134 27.678 31.6883 30.0667 32.2028 30.9487C32.7173 31.8307 33.783 34.8809 30.2183 37.4534C26.6536 40.0259 24.2281 40.5404 22.3907 39.6951C20.5532 38.8499 20.8104 37.5636 21.1044 35.2484C21.3984 32.9332 21.0677 32.6392 20.3327 31.9042Z" fill="#34312E" fill-opacity="0.2"/>
<path d="M39.1117 31.9042C37.9946 30.1108 38.9402 28.8785 39.5527 28.4865C36.1718 27.3399 35.7675 29.9442 35.988 31.3897C37.6344 39.8274 44.2199 44.4358 47.3069 45.6853C47.8826 46.0651 49.5339 46.2733 51.5331 44.0683C53.5323 41.8634 52.9786 36.9512 52.4519 34.7707C51.7904 36.4612 49.9529 38.2619 46.4249 37.4534C42.8969 36.6449 40.5082 34.1459 39.1117 31.9042Z" fill="#34312E" fill-opacity="0.2"/>
<path fill-rule="evenodd" clip-rule="evenodd" d="M46.9618 22.4481C42.3936 17.7445 35.9297 16.9634 30.3248 17.7793C27.9202 18.1293 26.2394 19.6655 24.879 21.7169C24.199 22.7422 23.6232 23.8612 23.0902 24.9703C22.9341 25.2952 22.7787 25.6258 22.6245 25.954L22.6244 25.954L22.6244 25.9541C22.2688 26.7107 21.9193 27.4542 21.5806 28.0852C20.4703 30.1534 18.9288 31.1707 17.3219 31.8475C17.1188 31.9331 16.9129 32.0139 16.7061 32.091C16.4881 32.1898 16.1851 32.397 16.2167 32.7127C16.2209 32.7544 16.2268 32.8071 16.2338 32.8697C16.3317 33.7394 16.6434 36.5095 15.4082 38.0047C14.71 38.8499 13.534 39.2909 12.799 39.4011C12.4798 39.4366 12.14 39.5816 12.3017 40.2788C13.0156 42.4099 13.8686 43.4989 15.4729 43.9267C17.4165 44.445 20.5551 44.5697 24.1047 44.7107L24.6088 44.7308C27.8397 44.86 31.1344 46.3953 32.3997 47.1466C32.9931 47.4989 33.1885 48.2656 32.8362 48.8589C32.4839 49.4523 31.7173 49.6477 31.1239 49.2954C30.0373 48.6502 27.1581 47.3337 24.509 47.2278C24.2813 47.2187 24.0532 47.2097 23.8249 47.2007H23.8248H23.8247H23.8246C20.4496 47.068 17.0534 46.9345 14.8291 46.3413C12.0293 45.5947 10.7512 43.5297 9.92317 41.0457C9.52842 39.8614 8.99483 38.0019 9.00004 36.1957C9.00527 34.3813 9.57614 32.2877 11.7473 31.2538C12.5942 30.8505 13.4384 30.5593 14.2103 30.3031C14.3186 30.2672 14.4251 30.232 14.5299 30.1975C15.1918 29.9791 15.7846 29.7835 16.3519 29.5445C17.6023 29.0178 18.6149 28.3262 19.3788 26.9032C19.6852 26.3326 19.9877 25.6887 20.3269 24.9667L20.327 24.9665L20.327 24.9665L20.3273 24.9659C20.4878 24.6242 20.6566 24.265 20.8379 23.8878C21.3855 22.7483 22.0202 21.5062 22.7964 20.3357C24.3484 17.9955 26.563 15.8016 29.9649 15.3064C35.9728 14.4318 43.4003 15.1942 48.7545 20.707C54.0698 26.1799 54.619 33.1151 54.6934 37.5057C54.7324 39.8083 54.3642 41.989 53.7269 43.6817C53.4088 44.5264 53.0075 45.2931 52.5203 45.8975C52.0425 46.4903 51.3986 47.0273 50.5804 47.2014L50.5149 47.2154C49.6121 47.4081 48.1387 47.7227 46.2039 47.0434C44.2667 46.3632 42.0216 44.7485 39.3515 41.4345C37.2089 38.7752 35.9276 36.4298 35.242 34.4885C34.5672 32.5781 34.4364 30.9608 34.7448 29.8154C35.1562 28.2872 37.1658 26.0781 40.6844 26.473C41.3701 26.55 41.8636 27.1683 41.7867 27.8541C41.7097 28.5399 41.0914 29.0334 40.4056 28.9564C38.1618 28.7046 37.2609 30.0822 37.1578 30.465C37.0308 30.9366 37.014 32.002 37.5983 33.6563C38.1717 35.2798 39.2947 37.381 41.2975 39.8667C43.8091 42.9839 45.6983 44.2173 47.0318 44.6855C48.3021 45.1316 49.2038 44.9396 50.0253 44.7646L50.0604 44.7572C50.1058 44.7475 50.2934 44.6782 50.5747 44.3292C50.8466 43.9919 51.132 43.4816 51.3882 42.8012C51.8993 41.4436 52.2293 39.5819 52.1948 37.548C52.1222 33.2658 51.5689 27.1916 46.9618 22.4481ZM25.1469 33.2272C26.4661 33.2272 27.5356 32.1577 27.5356 30.8385C27.5356 29.5192 26.4661 28.4497 25.1469 28.4497C23.8276 28.4497 22.7581 29.5192 22.7581 30.8385C22.7581 32.1577 23.8276 33.2272 25.1469 33.2272Z" fill="#34312E"/>
<path d="M79 47.2912H88.6025C88.8361 47.2912 89.3169 47.2844 90.045 47.2706C90.7731 47.2569 91.4737 47.2088 92.1468 47.1264C94.5372 46.8379 96.5634 46.0068 98.2257 44.633C99.8879 43.2593 101.152 41.5146 102.017 39.399C102.883 37.2835 103.315 34.9687 103.315 32.4547C103.315 29.9407 102.883 27.626 102.017 25.5104C101.152 23.3948 99.8879 21.6501 98.2257 20.2764C96.5634 18.9026 94.5372 18.0715 92.1468 17.783C91.4737 17.7006 90.7731 17.6525 90.045 17.6388C89.3169 17.625 88.8361 17.6182 88.6025 17.6182H79V47.2912ZM84.6873 42.016V22.8934H88.6025C88.9735 22.8934 89.4749 22.9002 90.1068 22.914C90.7387 22.9277 91.3088 22.9895 91.8171 23.0994C93.0672 23.3467 94.1044 23.9306 94.9287 24.851C95.7529 25.7714 96.3642 26.8979 96.7626 28.2304C97.1748 29.563 97.3808 30.9711 97.3808 32.4547C97.3808 33.8697 97.1816 35.2434 96.7832 36.576C96.3986 37.9085 95.7941 39.0487 94.9699 39.9966C94.1594 40.9445 93.1084 41.549 91.8171 41.81C91.3088 41.9061 90.7387 41.968 90.1068 41.9954C89.4749 42.0092 88.9735 42.016 88.6025 42.016H84.6873Z" fill="#34312E"/>
<path d="M117.45 47.9094C119.675 47.9094 121.633 47.4149 123.323 46.4258C125.026 45.4229 126.352 44.0423 127.3 42.2839C128.261 40.5118 128.742 38.4717 128.742 36.1638C128.742 33.8697 128.268 31.8434 127.32 30.085C126.372 28.3128 125.047 26.9253 123.343 25.9225C121.653 24.9197 119.689 24.4182 117.45 24.4182C115.252 24.4182 113.308 24.9128 111.618 25.9019C109.928 26.891 108.603 28.2716 107.641 30.0438C106.68 31.8022 106.199 33.8422 106.199 36.1638C106.199 38.458 106.666 40.4912 107.6 42.2633C108.548 44.0217 109.867 45.4023 111.556 46.4052C113.246 47.408 115.211 47.9094 117.45 47.9094ZM117.45 42.6754C115.705 42.6754 114.379 42.0916 113.473 40.9239C112.58 39.7425 112.133 38.1558 112.133 36.1638C112.133 34.2268 112.559 32.6608 113.411 31.4656C114.276 30.2567 115.623 29.6522 117.45 29.6522C119.222 29.6522 120.554 30.243 121.447 31.4244C122.354 32.6058 122.807 34.1856 122.807 36.1638C122.807 38.0734 122.361 39.6394 121.468 40.8621C120.589 42.071 119.249 42.6754 117.45 42.6754Z" fill="#34312E"/>
<path d="M141.475 47.9094C142.519 47.9094 143.48 47.7858 144.36 47.5385C145.253 47.2912 146.063 46.9409 146.791 46.4876V48.7337C146.819 49.5579 146.606 50.2448 146.152 50.7943C145.713 51.3576 145.122 51.7766 144.38 52.0513C143.638 52.3398 142.849 52.484 142.011 52.484C141.228 52.484 140.499 52.3123 139.826 51.9689C139.167 51.6254 138.659 51.124 138.301 50.4646L133.109 52.9786C133.96 54.421 135.176 55.5818 136.756 56.4611C138.336 57.354 140.074 57.8005 141.969 57.8005C143.604 57.8005 145.122 57.5807 146.523 57.1411C147.925 56.7152 149.106 56.0627 150.068 55.1835C151.043 54.3043 151.709 53.1847 152.066 51.8246C152.19 51.3438 152.272 50.8561 152.314 50.3616C152.369 49.8808 152.396 49.3656 152.396 48.8161V25.0364H147.492V26.2728C146.736 25.6821 145.878 25.2288 144.916 24.9128C143.968 24.5831 142.917 24.4182 141.763 24.4182C139.634 24.4182 137.779 24.9265 136.2 25.9431C134.62 26.9597 133.39 28.354 132.511 30.1262C131.646 31.8846 131.213 33.8971 131.213 36.1638C131.213 38.3893 131.639 40.3881 132.49 42.1603C133.356 43.9324 134.558 45.3336 136.097 46.364C137.635 47.3943 139.428 47.9094 141.475 47.9094ZM142.381 42.9227C141.173 42.9227 140.183 42.6205 139.414 42.016C138.645 41.4116 138.075 40.6011 137.704 39.5845C137.333 38.5542 137.147 37.414 137.147 36.1638C137.147 34.9275 137.34 33.801 137.724 32.7844C138.109 31.7541 138.7 30.9367 139.497 30.3323C140.307 29.7141 141.337 29.405 142.588 29.405C144.346 29.405 145.603 30.03 146.358 31.2801C147.114 32.5165 147.492 34.1444 147.492 36.1638C147.492 38.1833 147.107 39.818 146.338 41.0681C145.582 42.3045 144.263 42.9227 142.381 42.9227Z" fill="#34312E"/>
<path d="M157.301 47.2912H162.948V33.8147C162.948 32.5371 163.298 31.4999 163.998 30.7032C164.713 29.8927 165.654 29.4874 166.821 29.4874C168.044 29.4874 168.999 29.8995 169.686 30.7238C170.386 31.5343 170.737 32.6745 170.737 34.1444V47.2912H176.342V33.8147C176.342 32.5371 176.692 31.4999 177.393 30.7032C178.107 29.8927 179.048 29.4874 180.216 29.4874C181.438 29.4874 182.393 29.8995 183.08 30.7238C183.78 31.5343 184.131 32.6745 184.131 34.1444V47.2912H189.736V32.6608C189.736 30.2292 189.083 28.2648 187.778 26.7674C186.487 25.2562 184.57 24.5007 182.029 24.5007C180.6 24.5007 179.288 24.8098 178.093 25.428C176.898 26.0461 175.943 26.891 175.229 27.9625C174.652 26.9185 173.828 26.0805 172.756 25.4486C171.685 24.8166 170.352 24.5007 168.758 24.5007C167.412 24.5007 166.176 24.7686 165.049 25.3043C163.923 25.8263 162.989 26.5476 162.247 27.468V25.0364H157.301V47.2912Z" fill="#34312E"/>
<path d="M200.452 47.9094C202.169 47.9094 203.611 47.6484 204.779 47.1264C205.96 46.5906 207.046 45.7389 208.035 44.5712V47.2912H212.939V33.6911C212.939 32.6745 212.898 31.7541 212.815 30.9298C212.733 30.1056 212.472 29.2813 212.032 28.4571C211.249 26.9734 210.095 25.9294 208.571 25.3249C207.046 24.7205 205.301 24.4182 203.337 24.4182C200.658 24.4182 198.542 24.9952 196.99 26.1492C195.437 27.3031 194.38 28.8005 193.816 30.6413L198.886 32.2486C199.243 31.2321 199.868 30.5246 200.761 30.1262C201.654 29.7278 202.512 29.5286 203.337 29.5286C204.655 29.5286 205.638 29.7759 206.283 30.2704C206.929 30.7512 207.307 31.5137 207.417 32.5577C205.328 32.86 203.488 33.1553 201.894 33.4438C200.301 33.7186 198.968 34.0483 197.896 34.4329C196.111 35.0923 194.854 35.9921 194.125 37.1323C193.397 38.2588 193.033 39.5982 193.033 41.1506C193.033 42.3869 193.315 43.5203 193.878 44.5506C194.455 45.5672 195.293 46.3846 196.392 47.0028C197.505 47.6072 198.858 47.9094 200.452 47.9094ZM201.647 43.4997C200.685 43.4997 199.923 43.2868 199.359 42.8609C198.796 42.4213 198.515 41.8237 198.515 41.0681C198.515 40.5049 198.693 40.0241 199.05 39.6257C199.408 39.2136 199.998 38.8427 200.823 38.513C201.454 38.2794 202.231 38.0665 203.151 37.8742C204.085 37.6681 205.493 37.4071 207.375 37.0911C207.362 37.6269 207.32 38.2176 207.252 38.8633C207.183 39.4952 207.032 40.0516 206.798 40.5324C206.647 40.8483 206.359 41.2399 205.933 41.7069C205.521 42.174 204.958 42.593 204.243 42.9639C203.543 43.3211 202.677 43.4997 201.647 43.4997Z" fill="#34312E"/>
<path d="M230.826 47.2912V42.6342C229.507 42.8128 228.305 42.8678 227.22 42.7991C226.134 42.7304 225.344 42.3045 224.85 41.5215C224.589 41.1094 224.445 40.5599 224.417 39.873C224.403 39.1724 224.396 38.3893 224.396 37.5239V29.3638H230.826V25.0364H224.396V18.8545H218.792V25.0364H215V29.3638H218.792V37.8536C218.792 39.1861 218.805 40.3813 218.833 41.4391C218.86 42.4831 219.149 43.5134 219.698 44.53C220.303 45.6153 221.182 46.4052 222.336 46.8997C223.504 47.3805 224.822 47.6347 226.292 47.6622C227.776 47.7034 229.287 47.5797 230.826 47.2912Z" fill="#34312E"/>
<path d="M235.373 47.2912H240.978V25.0364H235.373V47.2912Z" fill="#34312E"/>
<path d="M246.29 47.2912H252.019V36.576L259.725 47.2912H267.02L258.448 36.1638L266.484 25.0364H259.56L252.019 35.7517V17.6182H246.331L246.29 47.2912Z" fill="#34312E"/>
<path d="M235 20C235 18.3431 236.343 17 238 17C239.657 17 241 18.3431 241 20C241 21.6569 239.657 23 238 23C236.343 23 235 21.6569 235 20Z" fill="url(#paint0_linear_20_97)"/>
<defs>
<linearGradient id="paint0_linear_20_97" x1="238" y1="17" x2="238" y2="23" gradientUnits="userSpaceOnUse">
<stop stop-color="#D2F878"/>
<stop offset="1" stop-color="#AEF20D"/>
</linearGradient>
</defs>
</svg>
